<svg width="30" height="30" viewBox="0 0 30 30" fill="none" xmlns="http://www.w3.org/2000/svg">
<rect width="30" height="30" fill="white"/>
<path d="M2.67977 14.7565C9.23898 11.8988 13.6129 10.0148 15.8012 9.10456C22.0497 6.5056 23.3481 6.05413 24.1944 6.03922C24.3805 6.03595 24.7967 6.08207 25.0662 6.30082C25.2939 6.48552 25.3565 6.73503 25.3865 6.91015C25.4165 7.08527 25.4537 7.4842 25.4241 7.7959C25.0855 11.3537 23.6204 19.9875 22.875 23.9723C22.5596 25.6584 21.9386 26.2236 21.3374 26.279C20.0307 26.3993 19.0385 25.4155 17.773 24.586C15.7927 23.2879 14.674 22.4798 12.7517 21.213C10.5303 19.7491 11.9704 18.9445 13.2364 17.6296C13.5677 17.2855 19.3247 12.0491 19.4361 11.5741C19.45 11.5147 19.463 11.2932 19.3314 11.1763C19.1999 11.0593 19.0057 11.0993 18.8656 11.1311C18.667 11.1762 15.5034 13.2671 9.37492 17.4041C8.47696 18.0206 7.66362 18.3211 6.9349 18.3054C6.13152 18.288 4.58617 17.8511 3.43736 17.4778C2.0283 17.0196 0.908401 16.7775 1.00592 15.9996C1.05671 15.5945 1.61466 15.1801 2.67977 14.7565Z" fill="black"/>
</svg>
