<svg width="30" height="30" viewBox="0 0 30 30" fill="none" xmlns="http://www.w3.org/2000/svg">
<path d="M21.1484 5.625C18.8349 5.625 17.0263 7.36755 15.3892 9.58112C13.1393 6.71654 11.2578 5.625 9.00619 5.625C4.41568 5.625 0.898438 11.5991 0.898438 17.9224C0.898438 21.8792 2.81273 24.375 6.01913 24.375C8.32689 24.375 9.98663 23.287 12.9373 18.1292C12.9373 18.1292 14.1672 15.9572 15.0133 14.4611C15.3098 14.9397 15.6214 15.4549 15.9502 16.0086L17.3338 18.3362C20.029 22.8465 21.5308 24.375 24.2519 24.375C27.3755 24.375 29.1139 21.8451 29.1139 17.806C29.1139 11.1853 25.5174 5.625 21.1484 5.625ZM10.6872 16.7327C8.29499 20.4827 7.4674 21.3232 6.1355 21.3232C4.76482 21.3232 3.95017 20.1199 3.95017 17.9741C3.95017 13.3836 6.23895 8.68965 8.9674 8.68965C10.4449 8.68965 11.6797 9.54297 13.5709 12.2505C11.7751 15.0051 10.6872 16.7327 10.6872 16.7327ZM19.7159 16.2606L18.0615 13.5016C17.6139 12.7735 17.1849 12.1045 16.7709 11.4911C18.2619 9.18979 19.4918 8.0431 20.9545 8.0431C23.9933 8.0431 26.4243 12.5172 26.4243 18.0129C26.4243 20.1077 25.7382 21.3232 24.3165 21.3232C22.9539 21.3232 22.303 20.4234 19.7159 16.2606Z" fill="black"/>
</svg>
