<svg width="30" height="30" viewBox="0 0 30 30" fill="none" xmlns="http://www.w3.org/2000/svg">
<path d="M15 2.5C8.09375 2.5 2.5 8.09375 2.5 15C2.5 20.5313 6.07813 25.2031 11.0469 26.8594C11.6719 26.9687 11.9063 26.5938 11.9063 26.2656C11.9063 25.9688 11.8906 24.9844 11.8906 23.9375C8.75 24.5156 7.9375 23.1719 7.6875 22.4688C7.54688 22.1094 6.9375 21 6.40625 20.7031C5.96875 20.4688 5.34375 19.8906 6.39063 19.875C7.375 19.8594 8.07813 20.7812 8.3125 21.1562C9.4375 23.0469 11.2344 22.5156 11.9531 22.1875C12.0625 21.375 12.3906 20.8281 12.75 20.5156C9.96875 20.2031 7.0625 19.125 7.0625 14.3438C7.0625 12.9844 7.54688 11.8594 8.34375 10.9844C8.21875 10.6719 7.78125 9.39062 8.46875 7.67187C8.46875 7.67187 9.51563 7.34375 11.9063 8.95312C12.9063 8.67187 13.9688 8.53125 15.0313 8.53125C16.0938 8.53125 17.1563 8.67187 18.1563 8.95312C20.5469 7.32812 21.5938 7.67187 21.5938 7.67187C22.2813 9.39062 21.8438 10.6719 21.7188 10.9844C22.5156 11.8594 23 12.9688 23 14.3438C23 19.1406 20.0782 20.2031 17.2969 20.5156C17.75 20.9063 18.1406 21.6563 18.1406 22.8281C18.1406 24.5 18.125 25.8438 18.125 26.2656C18.125 26.5938 18.3594 26.9844 18.9844 26.8594C24.0725 25.1416 27.4986 20.3704 27.5 15C27.5 8.09375 21.9063 2.5 15 2.5Z" fill="black"/>
</svg>
