<svg width="405" height="120" viewBox="0 0 405 120" fill="none" xmlns="http://www.w3.org/2000/svg">
<path d="M356.147 35.1367L362.62 49.644L369.211 35.1367H374.213V54.6364H369.623V44.1817L364.886 54.6364H360.178L355.559 44.1817V54.6364H350.969V35.1367H356.147Z" fill="black"/>
<path d="M337.468 34.7539C343.647 34.7539 347.678 39.3645 347.678 44.8855C347.678 50.3771 343.647 55.0171 337.468 55.0171C331.289 55.0171 327.258 50.3771 327.258 44.8855C327.258 39.3645 331.289 34.7539 337.468 34.7539ZM337.468 50.9351C340.763 50.9351 343.117 48.1452 343.117 44.8855C343.117 41.5964 340.763 38.8359 337.468 38.8359C334.172 38.8359 331.818 41.5964 331.818 44.8855C331.818 48.1452 334.172 50.9351 337.468 50.9351Z" fill="black"/>
<path d="M316.036 38.8359C312.829 38.8359 310.475 41.4496 310.475 44.8855C310.475 48.3214 312.829 50.9351 316.036 50.9351C317.86 50.9351 319.331 50.1422 320.302 48.9088H325.186C323.627 52.609 320.42 55.0171 316.036 55.0171C310.269 55.0171 305.914 50.7295 305.914 44.8855C305.914 39.0415 310.269 34.7539 316.036 34.7539C320.42 34.7539 323.627 37.1914 325.186 40.8622H320.302C319.331 39.6582 317.86 38.8359 316.036 38.8359Z" fill="black"/>
<path d="M298.938 54.637V49.5859H303.998V54.637H298.938Z" fill="black"/>
<path d="M287.246 35.1367V50.5543H296.662V54.6364H282.656V35.1367H287.246Z" fill="black"/>
<path d="M275.687 54.6364L273.834 50.4662H265.831L263.977 54.6364H259.328L267.802 35.1367H272.068L280.542 54.6364H275.687ZM269.862 41.4506L267.655 46.3842H272.01L269.862 41.4506Z" fill="black"/>
<path d="M255.859 44.8865C256.977 45.5326 257.948 47.001 257.948 48.8511C257.948 52.0521 255.83 54.6364 251.269 54.6364H242.266V35.1367H251.269C255.83 35.1367 257.948 37.721 257.948 40.8926C257.948 42.7428 256.977 44.2405 255.859 44.8865ZM246.856 50.5543H250.74C252.27 50.5543 253.358 49.9376 253.358 48.7923C253.358 47.5296 252.328 46.9422 250.74 46.9422H246.856V50.5543ZM246.856 42.8602H250.74C252.27 42.8602 253.358 42.2141 253.358 41.0688C253.358 39.8061 252.328 39.2187 250.74 39.2187H246.856V42.8602Z" fill="black"/>
<path d="M233.44 35.1367H238.03V54.6364H233.087L224.731 42.1554V54.6364H220.141V35.1367H225.084L233.44 47.6177V35.1367Z" fill="black"/>
<path d="M207.997 43.3007L212.999 35.1367H218.03L210.292 47.9994V54.6364H205.702V47.9994L197.875 35.1367H202.936L207.997 43.3007Z" fill="black"/>
<path d="M180.164 48.8794H184.754C185.637 50.4652 187.314 50.9351 189.285 50.9351C191.139 50.9351 192.846 50.289 192.846 48.9969C192.846 48.0865 192.257 47.2055 189.903 46.9999L186.667 46.7062C182.459 46.3245 180.782 44.0045 180.782 41.0384C180.782 37.4263 183.842 34.7539 188.667 34.7539C193.581 34.7539 196.612 37.6025 197.553 40.8622H192.963C192.404 39.5701 190.433 38.8359 188.638 38.8359C186.902 38.8359 185.343 39.5113 185.343 40.8329C185.343 41.6845 186.078 42.5068 187.844 42.683L191.198 43.006C195.052 43.3878 197.406 45.6197 197.406 48.7619C197.406 52.051 194.64 55.0171 189.285 55.0171C184.136 55.0171 181.223 52.609 180.164 48.8794Z" fill="black"/>
<path d="M177.415 54.6364H172.825V46.8835H164.528V54.6364H159.938V35.1367H164.528V42.8309H172.825V35.1367H177.415V54.6364Z" fill="black"/>
<path d="M147.731 38.8359C144.524 38.8359 142.17 41.4496 142.17 44.8855C142.17 48.3214 144.524 50.9351 147.731 50.9351C149.555 50.9351 151.026 50.1422 151.997 48.9088H156.882C155.322 52.609 152.115 55.0171 147.731 55.0171C141.964 55.0171 137.609 50.7295 137.609 44.8855C137.609 39.0415 141.964 34.7539 147.731 34.7539C152.115 34.7539 155.322 37.1914 156.882 40.8622H151.997C151.026 39.6582 149.555 38.8359 147.731 38.8359Z" fill="black"/>
<path d="M135.006 39.2187H125.59V42.8309H134.8V46.8835H125.59V50.5543H135.006V54.6364H121V35.1367H135.006V39.2187Z" fill="black"/>
<path d="M101.398 35.1367H118.229V39.2187H112.138V54.6364H107.548V39.2187H101.398V35.1367Z" fill="black"/>
<path d="M372.372 72.0209C373.513 72.0209 374.507 72.216 375.351 72.6063C376.196 72.9965 376.845 73.5584 377.298 74.2921C377.767 75.0101 378.002 75.892 378.002 76.9379C378.002 78.093 377.752 79.092 377.251 79.9349C376.751 80.7622 376.031 81.4022 375.093 81.8548C374.17 82.2919 373.052 82.5104 371.738 82.5104C370.878 82.5104 370.065 82.4324 369.299 82.2763C368.548 82.1202 367.915 81.8939 367.398 81.5973V79.6539C367.961 79.9973 368.642 80.2705 369.439 80.4734C370.253 80.6607 371.027 80.7544 371.762 80.7544C372.591 80.7544 373.31 80.6295 373.92 80.3798C374.546 80.1144 375.03 79.7164 375.375 79.1856C375.719 78.6393 375.891 77.9603 375.891 77.1486C375.891 76.0559 375.554 75.2208 374.882 74.6433C374.209 74.0501 373.146 73.7536 371.691 73.7536C371.254 73.7536 370.753 73.7926 370.19 73.8706C369.627 73.9487 369.174 74.0267 368.829 74.1048L367.797 73.4492L368.431 65.5586H376.829V67.4317H370.19L369.791 72.2785C370.057 72.2316 370.417 72.177 370.87 72.1146C371.324 72.0521 371.824 72.0209 372.372 72.0209Z" fill="black"/>
<path d="M364.69 82.2761H353.617V80.5668L358.004 76.1416C358.849 75.2987 359.56 74.5494 360.139 73.8938C360.717 73.2382 361.155 72.5982 361.453 71.9738C361.75 71.3339 361.898 70.6392 361.898 69.89C361.898 68.969 361.625 68.2744 361.077 67.8061C360.53 67.3222 359.818 67.0803 358.942 67.0803C358.129 67.0803 357.41 67.2208 356.784 67.5017C356.174 67.7827 355.549 68.1729 354.907 68.6724L353.805 67.291C354.243 66.9164 354.72 66.5808 355.236 66.2842C355.768 65.9876 356.338 65.7535 356.948 65.5818C357.574 65.4101 358.239 65.3242 358.942 65.3242C359.99 65.3242 360.89 65.5037 361.64 65.8627C362.391 66.2218 362.97 66.7369 363.376 67.4081C363.798 68.0637 364.01 68.852 364.01 69.7729C364.01 70.4285 363.908 71.0529 363.705 71.646C363.501 72.2236 363.212 72.7933 362.837 73.3553C362.461 73.9172 362.008 74.487 361.476 75.0645C360.944 75.6421 360.358 76.243 359.717 76.8674L356.221 80.3093V80.4029H364.69V82.2761Z" fill="black"/>
<path d="M351.331 73.8938C351.331 75.2518 351.229 76.4615 351.026 77.523C350.822 78.5844 350.494 79.4898 350.04 80.239C349.602 80.9727 349.024 81.5346 348.304 81.9248C347.601 82.3151 346.748 82.5102 345.747 82.5102C344.496 82.5102 343.456 82.1668 342.627 81.48C341.814 80.7932 341.204 79.8098 340.797 78.5298C340.406 77.2342 340.211 75.6889 340.211 73.8938C340.211 72.0831 340.391 70.5377 340.751 69.2578C341.126 67.9778 341.72 67.0022 342.533 66.331C343.347 65.6442 344.418 65.3008 345.747 65.3008C346.998 65.3008 348.038 65.6442 348.867 66.331C349.696 67.0022 350.314 67.9778 350.721 69.2578C351.127 70.5377 351.331 72.0831 351.331 73.8938ZM342.275 73.8938C342.275 75.4235 342.385 76.6957 342.604 77.7103C342.838 78.7249 343.206 79.4898 343.706 80.0049C344.222 80.5044 344.903 80.7541 345.747 80.7541C346.592 80.7541 347.264 80.5044 347.765 80.0049C348.281 79.5054 348.656 78.7483 348.891 77.7337C349.125 76.7035 349.243 75.4235 349.243 73.8938C349.243 72.3641 349.125 71.0997 348.891 70.1007C348.656 69.0861 348.281 68.329 347.765 67.8295C347.264 67.3144 346.592 67.0568 345.747 67.0568C344.903 67.0568 344.222 67.3144 343.706 67.8295C343.206 68.329 342.838 69.0861 342.604 70.1007C342.385 71.0997 342.275 72.3641 342.275 73.8938Z" fill="black"/>
<path d="M337.838 82.2761H326.766V80.5668L331.152 76.1416C331.997 75.2987 332.709 74.5494 333.287 73.8938C333.866 73.2382 334.304 72.5982 334.601 71.9738C334.898 71.3339 335.047 70.6392 335.047 69.89C335.047 68.969 334.773 68.2744 334.226 67.8061C333.678 67.3222 332.967 67.0803 332.091 67.0803C331.278 67.0803 330.558 67.2208 329.933 67.5017C329.323 67.7827 328.697 68.1729 328.056 68.6724L326.953 67.291C327.391 66.9164 327.868 66.5808 328.384 66.2842C328.916 65.9876 329.487 65.7535 330.097 65.5818C330.722 65.4101 331.387 65.3242 332.091 65.3242C333.139 65.3242 334.038 65.5037 334.789 65.8627C335.539 66.2218 336.118 66.7369 336.525 67.4081C336.947 68.0637 337.158 68.852 337.158 69.7729C337.158 70.4285 337.056 71.0529 336.853 71.646C336.65 72.2236 336.36 72.7933 335.985 73.3553C335.61 73.9172 335.156 74.487 334.624 75.0645C334.093 75.6421 333.506 76.243 332.865 76.8674L329.37 80.3093V80.4029H337.838V82.2761Z" fill="black"/>
<path d="M317.29 85.0142H315.812L317.455 82.2748H316.211V79.6758H318.815V82.5089L317.29 85.0142Z" fill="black"/>
<path d="M308.594 71.5038H310.611V73.0257C311.198 72.1828 312.441 71.4102 314.412 71.4102H315.045V73.3301H314.412C312.042 73.3301 310.611 74.852 310.611 77.0998V82.2743H308.594V71.5038Z" fill="black"/>
<path d="M300.38 80.7093C301.647 80.7093 302.679 80.2176 303.242 79.2576H305.424C304.673 81.3415 302.75 82.5824 300.38 82.5824C297.119 82.5824 294.727 80.1942 294.727 76.8694C294.727 73.6382 297.002 71.2031 300.263 71.2031C303.36 71.2031 305.565 73.6616 305.565 76.7523C305.565 77.0098 305.565 77.3376 305.518 77.642H296.814C297.049 79.3981 298.527 80.7093 300.38 80.7093ZM300.263 73.0763C298.41 73.0763 297.072 74.2236 296.838 75.886H303.453C303.195 74.2236 302.022 73.0763 300.263 73.0763Z" fill="black"/>
<path d="M281.273 66.6094H283.291V72.6736C284.089 71.7839 285.402 71.1986 286.927 71.1986C290.469 71.1986 292.393 73.9146 292.393 76.8882C292.393 79.8618 290.469 82.5778 286.927 82.5778C285.402 82.5778 284.089 81.9925 283.291 81.1027V82.2734H281.273V66.6094ZM283.221 76.8882C283.221 79.4403 284.98 80.7047 286.857 80.7047C288.945 80.7047 290.376 78.9486 290.376 76.8882C290.376 74.8277 288.945 73.0717 286.857 73.0717C284.98 73.0717 283.221 74.336 283.221 76.8882Z" fill="black"/>
<path d="M275.734 82.278V76.003C275.734 74.2704 274.819 73.0763 272.919 73.0763C271.23 73.0763 269.587 74.364 269.587 76.6352V82.278H267.57V76.003C267.57 74.2704 266.655 73.0763 264.755 73.0763C263.066 73.0763 261.447 74.364 261.447 76.565V82.278H259.43V71.5075H261.447V72.6782C262.127 71.8587 263.3 71.2031 264.919 71.2031C266.772 71.2031 268.156 71.9992 268.931 73.2167C269.846 72.046 271.23 71.2031 273.083 71.2031C276.015 71.2031 277.751 73.1465 277.751 75.8625V82.278H275.734Z" fill="black"/>
<path d="M251.216 80.7093C252.483 80.7093 253.515 80.2176 254.078 79.2576H256.26C255.509 81.3415 253.586 82.5824 251.216 82.5824C247.955 82.5824 245.562 80.1942 245.562 76.8694C245.562 73.6382 247.838 71.2031 251.099 71.2031C254.195 71.2031 256.401 73.6616 256.401 76.7523C256.401 77.0098 256.401 77.3376 256.354 77.642H247.65C247.885 79.3981 249.363 80.7093 251.216 80.7093ZM251.099 73.0763C249.246 73.0763 247.908 74.2236 247.674 75.886H254.289C254.031 74.2236 252.858 73.0763 251.099 73.0763Z" fill="black"/>
<path d="M243.338 74.645H241.109C240.546 73.685 239.514 73.0763 238.247 73.0763C236.136 73.0763 234.635 74.7621 234.635 76.8928C234.635 79.0235 236.136 80.7093 238.247 80.7093C239.514 80.7093 240.546 80.1005 241.109 79.1405H243.338C242.564 81.2244 240.64 82.5824 238.247 82.5824C235.057 82.5824 232.617 80.1473 232.617 76.8928C232.617 73.6382 235.057 71.2031 238.247 71.2031C240.64 71.2031 242.564 72.5611 243.338 74.645Z" fill="black"/>
<path d="M225.091 80.7093C226.358 80.7093 227.39 80.2176 227.953 79.2576H230.135C229.384 81.3415 227.461 82.5824 225.091 82.5824C221.83 82.5824 219.438 80.1942 219.438 76.8694C219.438 73.6382 221.713 71.2031 224.974 71.2031C228.07 71.2031 230.276 73.6616 230.276 76.7523C230.276 77.0098 230.276 77.3376 230.229 77.642H221.525C221.76 79.3981 223.238 80.7093 225.091 80.7093ZM224.974 73.0763C223.121 73.0763 221.783 74.2236 221.549 75.886H228.164C227.906 74.2236 226.733 73.0763 224.974 73.0763Z" fill="black"/>
<path d="M203.445 66.7266H208.677C214.119 66.7266 217.216 70.2387 217.216 74.5001C217.216 78.7614 214.119 82.2736 208.677 82.2736H203.445V66.7266ZM215.105 74.5001C215.105 71.0816 212.735 68.6934 208.817 68.6934H205.557V80.3068H208.817C212.735 80.3068 215.105 77.9185 215.105 74.5001Z" fill="black"/>
<path d="M189.067 72.0209C190.209 72.0209 191.202 72.216 192.046 72.6063C192.891 72.9965 193.54 73.5584 193.994 74.2921C194.463 75.0101 194.697 75.892 194.697 76.9379C194.697 78.093 194.447 79.092 193.947 79.9349C193.446 80.7622 192.727 81.4022 191.788 81.8548C190.866 82.2919 189.747 82.5104 188.434 82.5104C187.574 82.5104 186.76 82.4324 185.994 82.2763C185.243 82.1202 184.61 81.8939 184.094 81.5973V79.6539C184.657 79.9973 185.337 80.2705 186.135 80.4734C186.948 80.6607 187.722 80.7544 188.457 80.7544C189.286 80.7544 190.005 80.6295 190.615 80.3798C191.241 80.1144 191.726 79.7164 192.07 79.1856C192.414 78.6393 192.586 77.9603 192.586 77.1486C192.586 76.0559 192.25 75.2208 191.577 74.6433C190.905 74.0501 189.841 73.7536 188.387 73.7536C187.949 73.7536 187.448 73.7926 186.885 73.8706C186.322 73.9487 185.869 74.0267 185.525 74.1048L184.493 73.4492L185.126 65.5586H193.524V67.4317H186.885L186.487 72.2785C186.752 72.2316 187.112 72.177 187.566 72.1146C188.019 72.0521 188.52 72.0209 189.067 72.0209Z" fill="black"/>
<path d="M177.521 82.2763H175.504V70.5926C175.504 70.14 175.504 69.7575 175.504 69.4453C175.52 69.1332 175.535 68.8444 175.551 68.579C175.566 68.2981 175.582 68.0093 175.598 67.7127C175.347 67.9624 175.121 68.1732 174.917 68.3449C174.714 68.5166 174.456 68.7351 174.143 69.0005L172.36 70.4522L171.281 69.0707L175.809 65.5586H177.521V82.2763Z" fill="black"/>
<path d="M157.443 80.7093C158.71 80.7093 159.742 80.2176 160.305 79.2576H162.486C161.736 81.3415 159.812 82.5824 157.443 82.5824C154.182 82.5824 151.789 80.1942 151.789 76.8694C151.789 73.6382 154.065 71.2031 157.325 71.2031C160.422 71.2031 162.627 73.6616 162.627 76.7523C162.627 77.0098 162.627 77.3376 162.58 77.642H153.877C154.112 79.3981 155.589 80.7093 157.443 80.7093ZM157.325 73.0763C155.472 73.0763 154.135 74.2236 153.9 75.886H160.516C160.258 74.2236 159.085 73.0763 157.325 73.0763Z" fill="black"/>
<path d="M149.565 74.645H147.336C146.773 73.685 145.741 73.0763 144.474 73.0763C142.363 73.0763 140.861 74.7621 140.861 76.8928C140.861 79.0235 142.363 80.7093 144.474 80.7093C145.741 80.7093 146.773 80.1005 147.336 79.1405H149.565C148.79 81.2244 146.867 82.5824 144.474 82.5824C141.284 82.5824 138.844 80.1473 138.844 76.8928C138.844 73.6382 141.284 71.2031 144.474 71.2031C146.867 71.2031 148.79 72.5611 149.565 74.645Z" fill="black"/>
<path d="M131.341 71.2031C134.297 71.2031 136.033 73.1699 136.033 75.9328V82.278H134.015V76.0967C134.015 74.3172 133.077 73.0763 131.13 73.0763C129.371 73.0763 127.705 74.4109 127.705 76.682V82.278H125.688V71.5075H127.705V72.6782C128.409 71.8119 129.676 71.2031 131.341 71.2031Z" fill="black"/>
<path d="M119.875 71.5029H121.893V82.2734H119.875V71.5029ZM119.711 69.0444V66.6094H122.057V69.0444H119.711Z" fill="black"/>
<path d="M104.117 78.4138H106.416C107.12 79.7484 108.809 80.6148 110.873 80.6148C113.243 80.6148 114.932 79.5143 114.932 78.0158C114.932 76.5407 113.853 75.7914 111.624 75.5573L108.903 75.2763C105.83 74.9485 104.539 73.2861 104.539 71.0852C104.539 68.3457 106.838 66.4258 110.545 66.4258C114.369 66.4258 116.457 68.697 117.114 70.5935H114.815C114.205 69.3057 112.492 68.3926 110.475 68.3926C108.035 68.3926 106.651 69.5867 106.651 70.9915C106.651 72.4198 107.706 73.1691 109.536 73.3564L112.469 73.6608C115.331 73.9651 117.043 75.6041 117.043 77.8987C117.043 80.2167 114.955 82.5816 110.873 82.5816C106.768 82.5816 104.821 80.4275 104.117 78.4138Z" fill="black"/>
<path d="M65.8322 20.7927C65.8322 20.7927 63.2735 18.9958 71.4929 94.1522C76.3108 88.2531 89.4011 84.6952 89.4011 84.6952C89.4011 84.6952 88.0936 71.3187 87.0154 60.4222C86.0726 50.8935 85.9551 36.117 85.9551 36.117C85.9551 36.117 76.9695 36.117 70.0019 31.0078C64.5844 27.0353 65.8322 20.7927 65.8322 20.7927Z" fill="black"/>
<path d="M32.7313 23.1508L29.3659 97.615C29.3659 97.615 46.9489 97.4811 57.4794 96.8583C56.8813 70.233 57.0181 18.9958 57.0181 18.9958L32.7313 23.1508Z" fill="black"/>
<path d="M68.5842 36.115L70.6011 41.5998L49.7791 45.4859L49.7788 33.8451L68.5842 36.115Z" fill="black"/>
</svg>
